<svg xmlns="http://www.w3.org/2000/svg" viewBox="0 0 512 512" role="img" aria-labelledby="title desc">
  <title id="title">MdWrk</title>
  <desc id="desc">A geometric MdWrk mark with layered Markdown panels.</desc>
  <rect width="512" height="512" rx="112" fill="#0f172a"/>
  <path d="M104 148h304c17.7 0 32 14.3 32 32v152c0 17.7-14.3 32-32 32H104c-17.7 0-32-14.3-32-32V180c0-17.7 14.3-32 32-32Z" fill="#f8fafc"/>
  <path d="M126 202h76l42 58 42-58h76v108h-48v-53l-50 63h-40l-50-63v53h-48V202Z" fill="#0f172a"/>
  <path d="M360 246h-36l58 74 58-74h-36v-44h-44v44Z" fill="#4f46e5"/>
  <rect x="104" y="382" width="304" height="24" rx="12" fill="#10b981"/>
</svg>

