<?xml version="1.0" encoding="UTF-8"?>
<svg xmlns="http://www.w3.org/2000/svg" width="1790" height="704" viewBox="0 0 1790 704" role="img" aria-labelledby="title desc">
<title id="title">Lander Package DAG</title>
<desc id="desc">Lander packages plus required internal dependencies, excluding mdwrkcom app/content children Arrows and the dependency list both use consumer depends on dependency direction.</desc>
<defs><marker id="arrow" markerWidth="8" markerHeight="8" refX="6" refY="4" orient="auto" markerUnits="strokeWidth"><path d="M 0 0 L 8 4 L 0 8 z" fill="#475569"/></marker><filter id="shadow" x="-10%" y="-10%" width="120%" height="130%"><feDropShadow dx="0" dy="3" stdDeviation="3" flood-color="#0f172a" flood-opacity="0.12"/></filter></defs>
<rect width="100%" height="100%" fill="#ffffff"/>
<text x="58" y="52" font-family="Inter, Segoe UI, Arial, sans-serif" font-size="31" font-weight="800" fill="#0f172a">Lander Package DAG</text>
<text x="58" y="84" font-family="Inter, Segoe UI, Arial, sans-serif" font-size="16" fill="#475569">Lander packages plus required internal dependencies, excluding mdwrkcom app/content children</text>
<text x="58" y="112" font-family="Inter, Segoe UI, Arial, sans-serif" font-size="14" font-weight="700" fill="#334155">Read every arrow as: consumer depends on dependency.</text>
<text x="1732" y="112" text-anchor="end" font-family="Inter, Segoe UI, Arial, sans-serif" font-size="14" fill="#64748b">9 nodes / 10 direct edges</text>
<g fill="none" stroke="#475569" stroke-width="1.45" stroke-opacity="0.42" marker-end="url(#arrow)">
<path d="M 330 360 C 322 399.5, 556 399.5, 548 439"/><!-- @mdwrk/lander-core depends on @mdwrk/lander-content-contract -->
<path d="M 146 212 C 142 325.5, 552 325.5, 548 439"/><!-- @mdwrk/lander-markdown-content-adapter depends on @mdwrk/lander-content-contract -->
<path d="M 146 212 C 146 251.5, 330 251.5, 330 291"/><!-- @mdwrk/lander-markdown-content-adapter depends on @mdwrk/lander-core -->
<path d="M 347 212 C 351 325.5, 544 325.5, 548 439"/><!-- @mdwrk/lander-page-template-presets depends on @mdwrk/lander-content-contract -->
<path d="M 347 212 C 355 251.5, 540 251.5, 548 291"/><!-- @mdwrk/lander-page-template-presets depends on @mdwrk/lander-page-templates -->
<path d="M 548 360 C 540 399.5, 556 399.5, 548 439"/><!-- @mdwrk/lander-page-templates depends on @mdwrk/lander-content-contract -->
<path d="M 548 212 C 544 325.5, 552 325.5, 548 439"/><!-- @mdwrk/lander-react depends on @mdwrk/lander-content-contract -->
<path d="M 548 212 C 548 251.5, 330 251.5, 330 291"/><!-- @mdwrk/lander-react depends on @mdwrk/lander-core -->
<path d="M 548 212 C 552 251.5, 762 251.5, 766 291"/><!-- @mdwrk/lander-react depends on @mdwrk/structured-data -->
<path d="M 749 212 C 757 251.5, 322 251.5, 330 291"/><!-- @mdwrk/lander-seo depends on @mdwrk/lander-core -->
</g>
<g font-family="Inter, Segoe UI, Arial, sans-serif" font-size="13" font-weight="700">
<rect x="460" y="446" width="176" height="62" rx="9" fill="#fff7ed" stroke="#c2410c" stroke-width="1.6" filter="url(#shadow)"/>
<rect x="466" y="452" width="164" height="50" rx="6" fill="none" stroke="#fed7aa" stroke-width="1"/>
<g fill="#0f172a"><text x="548" y="464.5" text-anchor="middle">@mdwrk/</text>
<text x="548" y="481.5" text-anchor="middle">lander-content-contract</text></g>
<rect x="242" y="298" width="176" height="62" rx="9" fill="#fff7ed" stroke="#c2410c" stroke-width="1.6" filter="url(#shadow)"/>
<rect x="248" y="304" width="164" height="50" rx="6" fill="none" stroke="#fed7aa" stroke-width="1"/>
<g fill="#0f172a"><text x="330" y="316.5" text-anchor="middle">@mdwrk/</text>
<text x="330" y="333.5" text-anchor="middle">lander-core</text></g>
<rect x="58" y="150" width="176" height="62" rx="9" fill="#fff7ed" stroke="#c2410c" stroke-width="1.6" filter="url(#shadow)"/>
<rect x="64" y="156" width="164" height="50" rx="6" fill="none" stroke="#fed7aa" stroke-width="1"/>
<g fill="#0f172a"><text x="146" y="168.5" text-anchor="middle">@mdwrk/</text>
<text x="146" y="185.5" text-anchor="middle">lander-markdown-content-adapter</text></g>
<rect x="259" y="150" width="176" height="62" rx="9" fill="#fff7ed" stroke="#c2410c" stroke-width="1.6" filter="url(#shadow)"/>
<rect x="265" y="156" width="164" height="50" rx="6" fill="none" stroke="#fed7aa" stroke-width="1"/>
<g fill="#0f172a"><text x="347" y="168.5" text-anchor="middle">@mdwrk/</text>
<text x="347" y="185.5" text-anchor="middle">lander-page-template-presets</text></g>
<rect x="460" y="298" width="176" height="62" rx="9" fill="#fff7ed" stroke="#c2410c" stroke-width="1.6" filter="url(#shadow)"/>
<rect x="466" y="304" width="164" height="50" rx="6" fill="none" stroke="#fed7aa" stroke-width="1"/>
<g fill="#0f172a"><text x="548" y="316.5" text-anchor="middle">@mdwrk/</text>
<text x="548" y="333.5" text-anchor="middle">lander-page-templates</text></g>
<rect x="460" y="150" width="176" height="62" rx="9" fill="#fff7ed" stroke="#c2410c" stroke-width="1.6" filter="url(#shadow)"/>
<rect x="466" y="156" width="164" height="50" rx="6" fill="none" stroke="#fed7aa" stroke-width="1"/>
<g fill="#0f172a"><text x="548" y="168.5" text-anchor="middle">@mdwrk/</text>
<text x="548" y="185.5" text-anchor="middle">lander-react</text></g>
<rect x="661" y="150" width="176" height="62" rx="9" fill="#fff7ed" stroke="#c2410c" stroke-width="1.6" filter="url(#shadow)"/>
<rect x="667" y="156" width="164" height="50" rx="6" fill="none" stroke="#fed7aa" stroke-width="1"/>
<g fill="#0f172a"><text x="749" y="168.5" text-anchor="middle">@mdwrk/</text>
<text x="749" y="185.5" text-anchor="middle">lander-seo</text></g>
<rect x="862" y="150" width="176" height="62" rx="9" fill="#fff7ed" stroke="#c2410c" stroke-width="1.6" filter="url(#shadow)"/>
<rect x="868" y="156" width="164" height="50" rx="6" fill="none" stroke="#fed7aa" stroke-width="1"/>
<g fill="#0f172a"><text x="950" y="168.5" text-anchor="middle">@mdwrk/</text>
<text x="950" y="185.5" text-anchor="middle">lander-theme</text></g>
<rect x="678" y="298" width="176" height="62" rx="9" fill="#f8fafc" stroke="#334155" stroke-width="1.6" filter="url(#shadow)"/>
<rect x="684" y="304" width="164" height="50" rx="6" fill="none" stroke="#cbd5e1" stroke-width="1"/>
<g fill="#0f172a"><text x="766" y="316.5" text-anchor="middle">@mdwrk/</text>
<text x="766" y="333.5" text-anchor="middle">structured-data</text></g>
</g>
<rect x="1082" y="140" width="650" height="514" rx="14" fill="#f8fafc" stroke="#cbd5e1"/>
<text x="1106" y="176" font-family="Inter, Segoe UI, Arial, sans-serif" font-size="21" font-weight="800" fill="#0f172a">Direct dependency list</text>
<text x="1106" y="202" font-family="Inter, Segoe UI, Arial, sans-serif" font-size="14" fill="#475569">Left side = consumer. Right side = packages it depends on.</text>
<text x="1106" y="236" font-family="Inter, Segoe UI, Arial, sans-serif" font-size="14" font-weight="800" fill="#0f172a">lander-core</text>
<text x="1120" y="256" font-family="Inter, Segoe UI, Arial, sans-serif" font-size="13" fill="#475569">depends on: lander-content-contract</text>
<text x="1106" y="285" font-family="Inter, Segoe UI, Arial, sans-serif" font-size="14" font-weight="800" fill="#0f172a">lander-markdown-content-adapter</text>
<text x="1120" y="305" font-family="Inter, Segoe UI, Arial, sans-serif" font-size="13" fill="#475569">depends on: lander-content-contract, lander-core</text>
<text x="1106" y="334" font-family="Inter, Segoe UI, Arial, sans-serif" font-size="14" font-weight="800" fill="#0f172a">lander-page-template-presets</text>
<text x="1120" y="354" font-family="Inter, Segoe UI, Arial, sans-serif" font-size="13" fill="#475569">depends on: lander-content-contract, lander-page-templates</text>
<text x="1106" y="383" font-family="Inter, Segoe UI, Arial, sans-serif" font-size="14" font-weight="800" fill="#0f172a">lander-page-templates</text>
<text x="1120" y="403" font-family="Inter, Segoe UI, Arial, sans-serif" font-size="13" fill="#475569">depends on: lander-content-contract</text>
<text x="1106" y="432" font-family="Inter, Segoe UI, Arial, sans-serif" font-size="14" font-weight="800" fill="#0f172a">lander-react</text>
<text x="1120" y="452" font-family="Inter, Segoe UI, Arial, sans-serif" font-size="13" fill="#475569">depends on: lander-content-contract, lander-core, structured-data</text>
<text x="1106" y="481" font-family="Inter, Segoe UI, Arial, sans-serif" font-size="14" font-weight="800" fill="#0f172a">lander-seo</text>
<text x="1120" y="501" font-family="Inter, Segoe UI, Arial, sans-serif" font-size="13" fill="#475569">depends on: lander-core</text>
<text x="58" y="670" font-family="Inter, Segoe UI, Arial, sans-serif" font-size="13" fill="#64748b">Generated from package.json direct internal dependencies. Transitive relationships appear only through direct edges.</text>
</svg>
