<?xml version="1.0" encoding="UTF-8"?>
<svg xmlns="http://www.w3.org/2000/svg" width="2200" height="1180" viewBox="0 0 2200 1180" role="img" aria-labelledby="title desc">
<title id="title">MdWrk top-down package dependency DAG</title>
<desc id="desc">Top-down graph of direct internal package dependencies parsed from package.json files. Arrows point from a consumer package to the package it depends on.</desc>
<defs>
  <marker id="arrow" markerWidth="8" markerHeight="8" refX="6" refY="4" orient="auto" markerUnits="strokeWidth"><path d="M 0 0 L 8 4 L 0 8 z" fill="#64748b"/></marker>
  <filter id="shadow" x="-10%" y="-10%" width="120%" height="130%"><feDropShadow dx="0" dy="3" stdDeviation="3" flood-color="#0f172a" flood-opacity="0.12"/></filter>
</defs>
<rect width="100%" height="100%" fill="#ffffff"/>
<text x="90" y="58" font-family="Inter, Segoe UI, Arial, sans-serif" font-size="34" font-weight="800" fill="#0f172a">MdWrk Package DAG</text>
<text x="90" y="94" font-family="Inter, Segoe UI, Arial, sans-serif" font-size="18" fill="#475569">Top-down direct internal dependencies. Arrows point from consumer to dependency.</text>
<text x="2110" y="92" text-anchor="end" font-family="Inter, Segoe UI, Arial, sans-serif" font-size="15" fill="#64748b">81 direct edges from package.json</text>
<g fill="none" stroke="#64748b" stroke-width="1.35" stroke-opacity="0.34" marker-end="url(#arrow)">
<path d="M 185 219 C 173 304.5, 197 304.5, 185 383"/><!-- @mdwrk/mdwrkspace -> @mdwrk/extension-gemini-agent -->
<path d="M 185 219 C 176 304.5, 422.75 304.5, 413.75 383"/><!-- @mdwrk/mdwrkspace -> @mdwrk/extension-git-ops -->
<path d="M 185 219 C 179 539.5, 191 539.5, 185 853"/><!-- @mdwrk/mdwrkspace -> @mdwrk/extension-host -->
<path d="M 185 219 C 182 422, 493 422, 490 618"/><!-- @mdwrk/mdwrkspace -> @mdwrk/extension-language-pack-studio -->
<path d="M 185 219 C 185 422, 185 422, 185 618"/><!-- @mdwrk/mdwrkspace -> @mdwrk/extension-manager -->
<path d="M 185 219 C 188 657, 182 657, 185 1088"/><!-- @mdwrk/mdwrkspace -> @mdwrk/extension-manifest -->
<path d="M 185 219 C 191 422, 789 422, 795 618"/><!-- @mdwrk/mdwrkspace -> @mdwrk/extension-runtime -->
<path d="M 185 219 C 194 304.5, 862.25 304.5, 871.25 383"/><!-- @mdwrk/mdwrkspace -> @mdwrk/extension-theme-studio -->
<path d="M 185 219 C 197 304.5, 630.5 304.5, 642.5 383"/><!-- @mdwrk/mdwrkspace -> @mdwrk/extension-workspace-files -->
<path d="M 185 219 C 173 539.5, 1620.3333333333335 539.5, 1608.3333333333335 853"/><!-- @mdwrk/mdwrkspace -> @mdwrk/i18n -->
<path d="M 185 219 C 176 539.5, 1820.6666666666667 539.5, 1811.6666666666667 853"/><!-- @mdwrk/mdwrkspace -> @mdwrk/icons -->
<path d="M 185 219 C 179 304.5, 1106 304.5, 1100 383"/><!-- @mdwrk/mdwrkspace -> @mdwrk/markdown-edit-in-renderer-react -->
<path d="M 185 219 C 182 422, 1103 422, 1100 618"/><!-- @mdwrk/mdwrkspace -> @mdwrk/markdown-editor-react -->
<path d="M 185 219 C 185 539.5, 591.6666666666667 539.5, 591.6666666666667 853"/><!-- @mdwrk/mdwrkspace -> @mdwrk/markdown-renderer-core -->
<path d="M 185 219 C 188 422, 1402 422, 1405 618"/><!-- @mdwrk/mdwrkspace -> @mdwrk/markdown-renderer-react -->
<path d="M 185 219 C 191 657, 1094 657, 1100 1088"/><!-- @mdwrk/mdwrkspace -> @mdwrk/theme-contract -->
<path d="M 185 219 C 194 539.5, 1396 539.5, 1405 853"/><!-- @mdwrk/mdwrkspace -> @mdwrk/ui-tokens -->
<path d="M 1100 219 C 1112 657, 2003 657, 2015 1088"/><!-- @mdwrk/mdwrkcom -> @mdwrk/lander-content-contract -->
<path d="M 1100 219 C 1088 539.5, 807 539.5, 795 853"/><!-- @mdwrk/mdwrkcom -> @mdwrk/lander-core -->
<path d="M 1100 219 C 1091 304.5, 1337.75 304.5, 1328.75 383"/><!-- @mdwrk/mdwrkcom -> @mdwrk/lander-react -->
<path d="M 1100 219 C 1094 304.5, 1563.5 304.5, 1557.5 383"/><!-- @mdwrk/mdwrkcom -> @mdwrk/lander-seo -->
<path d="M 1100 219 C 1097 304.5, 1789.25 304.5, 1786.25 383"/><!-- @mdwrk/mdwrkcom -> @mdwrk/lander-theme -->
<path d="M 1100 219 C 1100 422, 1100 422, 1100 618"/><!-- @mdwrk/mdwrkcom -> @mdwrk/markdown-editor-react -->
<path d="M 1100 219 C 1103 539.5, 588.6666666666667 539.5, 591.6666666666667 853"/><!-- @mdwrk/mdwrkcom -> @mdwrk/markdown-renderer-core -->
<path d="M 1100 219 C 1106 422, 1399 422, 1405 618"/><!-- @mdwrk/mdwrkcom -> @mdwrk/markdown-renderer-react -->
<path d="M 1100 219 C 1109 539.5, 1192.6666666666667 539.5, 1201.6666666666667 853"/><!-- @mdwrk/mdwrkcom -> @mdwrk/structured-data -->
<path d="M 1100 219 C 1112 539.5, 1393 539.5, 1405 853"/><!-- @mdwrk/mdwrkcom -> @mdwrk/ui-tokens -->
<path d="M 185 924 C 173 1009.5, 197 1009.5, 185 1088"/><!-- @mdwrk/extension-host -> @mdwrk/extension-manifest -->
<path d="M 185 924 C 176 1009.5, 1109 1009.5, 1100 1088"/><!-- @mdwrk/extension-host -> @mdwrk/theme-contract -->
<path d="M 388.33333333333337 924 C 382.33333333333337 892, 597.6666666666667 892, 591.6666666666667 853"/><!-- @mdwrk/markdown-editor-core -> @mdwrk/markdown-renderer-core -->
<path d="M 1100 689 C 1097 774.5, 391.33333333333337 774.5, 388.33333333333337 853"/><!-- @mdwrk/markdown-editor-react -> @mdwrk/markdown-editor-core -->
<path d="M 1100 689 C 1100 774.5, 2015 774.5, 2015 853"/><!-- @mdwrk/markdown-editor-react -> @mdwrk/testing -->
<path d="M 1100 689 C 1103 774.5, 1402 774.5, 1405 853"/><!-- @mdwrk/markdown-editor-react -> @mdwrk/ui-tokens -->
<path d="M 1100 454 C 1106 657, 382.33333333333337 657, 388.33333333333337 853"/><!-- @mdwrk/markdown-edit-in-renderer-react -> @mdwrk/markdown-editor-core -->
<path d="M 1100 454 C 1109 539.5, 1091 539.5, 1100 618"/><!-- @mdwrk/markdown-edit-in-renderer-react -> @mdwrk/markdown-editor-react -->
<path d="M 1100 454 C 1112 657, 579.6666666666667 657, 591.6666666666667 853"/><!-- @mdwrk/markdown-edit-in-renderer-react -> @mdwrk/markdown-renderer-core -->
<path d="M 1100 454 C 1088 539.5, 1417 539.5, 1405 618"/><!-- @mdwrk/markdown-edit-in-renderer-react -> @mdwrk/markdown-renderer-react -->
<path d="M 1100 454 C 1091 657, 2024 657, 2015 853"/><!-- @mdwrk/markdown-edit-in-renderer-react -> @mdwrk/testing -->
<path d="M 1100 454 C 1094 657, 1411 657, 1405 853"/><!-- @mdwrk/markdown-edit-in-renderer-react -> @mdwrk/ui-tokens -->
<path d="M 185 454 C 182 657, 188 657, 185 853"/><!-- @mdwrk/extension-gemini-agent -> @mdwrk/extension-host -->
<path d="M 185 454 C 185 774.5, 185 774.5, 185 1088"/><!-- @mdwrk/extension-gemini-agent -> @mdwrk/extension-manifest -->
<path d="M 185 454 C 188 539.5, 792 539.5, 795 618"/><!-- @mdwrk/extension-gemini-agent -> @mdwrk/extension-runtime -->
<path d="M 185 454 C 191 539.5, 1399 539.5, 1405 618"/><!-- @mdwrk/extension-gemini-agent -> @mdwrk/markdown-renderer-react -->
<path d="M 413.75 454 C 422.75 657, 176 657, 185 853"/><!-- @mdwrk/extension-git-ops -> @mdwrk/extension-host -->
<path d="M 413.75 454 C 425.75 774.5, 173 774.5, 185 1088"/><!-- @mdwrk/extension-git-ops -> @mdwrk/extension-manifest -->
<path d="M 413.75 454 C 401.75 539.5, 807 539.5, 795 618"/><!-- @mdwrk/extension-git-ops -> @mdwrk/extension-runtime -->
<path d="M 490 689 C 481 774.5, 194 774.5, 185 853"/><!-- @mdwrk/extension-language-pack-studio -> @mdwrk/extension-host -->
<path d="M 490 689 C 484 892, 191 892, 185 1088"/><!-- @mdwrk/extension-language-pack-studio -> @mdwrk/extension-manifest -->
<path d="M 490 689 C 487 774.5, 2018 774.5, 2015 853"/><!-- @mdwrk/extension-language-pack-studio -> @mdwrk/testing -->
<path d="M 185 689 C 185 774.5, 185 774.5, 185 853"/><!-- @mdwrk/extension-manager -> @mdwrk/extension-host -->
<path d="M 185 689 C 188 892, 182 892, 185 1088"/><!-- @mdwrk/extension-manager -> @mdwrk/extension-manifest -->
<path d="M 185 689 C 191 657, 789 657, 795 618"/><!-- @mdwrk/extension-manager -> @mdwrk/extension-runtime -->
<path d="M 185 689 C 194 774.5, 2006 774.5, 2015 853"/><!-- @mdwrk/extension-manager -> @mdwrk/testing -->
<path d="M 795 689 C 807 774.5, 173 774.5, 185 853"/><!-- @mdwrk/extension-runtime -> @mdwrk/extension-host -->
<path d="M 795 689 C 783 892, 197 892, 185 1088"/><!-- @mdwrk/extension-runtime -> @mdwrk/extension-manifest -->
<path d="M 795 689 C 786 892, 1109 892, 1100 1088"/><!-- @mdwrk/extension-runtime -> @mdwrk/theme-contract -->
<path d="M 871.25 454 C 865.25 657, 191 657, 185 853"/><!-- @mdwrk/extension-theme-studio -> @mdwrk/extension-host -->
<path d="M 871.25 454 C 868.25 774.5, 188 774.5, 185 1088"/><!-- @mdwrk/extension-theme-studio -> @mdwrk/extension-manifest -->
<path d="M 871.25 454 C 871.25 539.5, 795 539.5, 795 618"/><!-- @mdwrk/extension-theme-studio -> @mdwrk/extension-runtime -->
<path d="M 871.25 454 C 874.25 539.5, 1097 539.5, 1100 618"/><!-- @mdwrk/extension-theme-studio -> @mdwrk/markdown-editor-react -->
<path d="M 871.25 454 C 877.25 539.5, 1399 539.5, 1405 618"/><!-- @mdwrk/extension-theme-studio -> @mdwrk/markdown-renderer-react -->
<path d="M 871.25 454 C 880.25 657, 2006 657, 2015 853"/><!-- @mdwrk/extension-theme-studio -> @mdwrk/testing -->
<path d="M 871.25 454 C 883.25 774.5, 1088 774.5, 1100 1088"/><!-- @mdwrk/extension-theme-studio -> @mdwrk/theme-contract -->
<path d="M 871.25 454 C 859.25 657, 1417 657, 1405 853"/><!-- @mdwrk/extension-theme-studio -> @mdwrk/ui-tokens -->
<path d="M 642.5 454 C 633.5 657, 194 657, 185 853"/><!-- @mdwrk/extension-workspace-files -> @mdwrk/extension-host -->
<path d="M 642.5 454 C 636.5 774.5, 191 774.5, 185 1088"/><!-- @mdwrk/extension-workspace-files -> @mdwrk/extension-manifest -->
<path d="M 642.5 454 C 639.5 539.5, 798 539.5, 795 618"/><!-- @mdwrk/extension-workspace-files -> @mdwrk/extension-runtime -->
<path d="M 1405 689 C 1405 774.5, 591.6666666666667 774.5, 591.6666666666667 853"/><!-- @mdwrk/markdown-renderer-react -> @mdwrk/markdown-renderer-core -->
<path d="M 1405 689 C 1408 774.5, 2012 774.5, 2015 853"/><!-- @mdwrk/markdown-renderer-react -> @mdwrk/testing -->
<path d="M 1405 689 C 1411 774.5, 1399 774.5, 1405 853"/><!-- @mdwrk/markdown-renderer-react -> @mdwrk/ui-tokens -->
<path d="M 1405 924 C 1414 1009.5, 1091 1009.5, 1100 1088"/><!-- @mdwrk/ui-tokens -> @mdwrk/theme-contract -->
<path d="M 795 924 C 807 1009.5, 2003 1009.5, 2015 1088"/><!-- @mdwrk/lander-core -> @mdwrk/lander-content-contract -->
<path d="M 1710 689 C 1698 892, 2027 892, 2015 1088"/><!-- @mdwrk/lander-markdown-content-adapter -> @mdwrk/lander-content-contract -->
<path d="M 1710 689 C 1701 774.5, 804 774.5, 795 853"/><!-- @mdwrk/lander-markdown-content-adapter -> @mdwrk/lander-core -->
<path d="M 2015 689 C 2009 892, 2021 892, 2015 1088"/><!-- @mdwrk/lander-page-template-presets -> @mdwrk/lander-content-contract -->
<path d="M 2015 689 C 2012 774.5, 1001.3333333333334 774.5, 998.3333333333334 853"/><!-- @mdwrk/lander-page-template-presets -> @mdwrk/lander-page-templates -->
<path d="M 998.3333333333334 924 C 998.3333333333334 1009.5, 2015 1009.5, 2015 1088"/><!-- @mdwrk/lander-page-templates -> @mdwrk/lander-content-contract -->
<path d="M 1328.75 454 C 1331.75 774.5, 2012 774.5, 2015 1088"/><!-- @mdwrk/lander-react -> @mdwrk/lander-content-contract -->
<path d="M 1328.75 454 C 1334.75 657, 789 657, 795 853"/><!-- @mdwrk/lander-react -> @mdwrk/lander-core -->
<path d="M 1328.75 454 C 1337.75 657, 1192.6666666666667 657, 1201.6666666666667 853"/><!-- @mdwrk/lander-react -> @mdwrk/structured-data -->
<path d="M 1557.5 454 C 1569.5 657, 783 657, 795 853"/><!-- @mdwrk/lander-seo -> @mdwrk/lander-core -->
</g>
<g font-family="Inter, Segoe UI, Arial, sans-serif" font-size="14" font-weight="700">
<rect x="90" y="155" width="190" height="64" rx="10" fill="#fff7ed" stroke="#c2410c" stroke-width="1.6" filter="url(#shadow)"/>
<rect x="96" y="161" width="178" height="52" rx="7" fill="none" stroke="#fed7aa" stroke-width="1"/>
<g fill="#0f172a"><text x="185" y="173" text-anchor="middle">apps/client</text>
<text x="185" y="191" text-anchor="middle">@mdwrk/mdwrkspace</text></g>
<rect x="1005" y="155" width="190" height="64" rx="10" fill="#ecfdf5" stroke="#0f766e" stroke-width="1.6" filter="url(#shadow)"/>
<rect x="1011" y="161" width="178" height="52" rx="7" fill="none" stroke="#99f6e4" stroke-width="1"/>
<g fill="#0f172a"><text x="1100" y="182" text-anchor="middle">apps/mdwrkcom</text></g>
<rect x="1920" y="155" width="190" height="64" rx="10" fill="#fff7ed" stroke="#c2410c" stroke-width="1.6" filter="url(#shadow)"/>
<rect x="1926" y="161" width="178" height="52" rx="7" fill="none" stroke="#fed7aa" stroke-width="1"/>
<g fill="#0f172a"><text x="2015" y="182" text-anchor="middle">apps/desktop</text></g>
<rect x="90" y="390" width="190" height="64" rx="10" fill="#eef2ff" stroke="#4f46e5" stroke-width="1.6" filter="url(#shadow)"/>
<rect x="96" y="396" width="178" height="52" rx="7" fill="none" stroke="#c7d2fe" stroke-width="1"/>
<g fill="#0f172a"><text x="185" y="408" text-anchor="middle">@mdwrk/</text>
<text x="185" y="426" text-anchor="middle">extension-gemini-agent</text></g>
<rect x="318.75" y="390" width="190" height="64" rx="10" fill="#eef2ff" stroke="#4f46e5" stroke-width="1.6" filter="url(#shadow)"/>
<rect x="324.75" y="396" width="178" height="52" rx="7" fill="none" stroke="#c7d2fe" stroke-width="1"/>
<g fill="#0f172a"><text x="413.75" y="408" text-anchor="middle">@mdwrk/</text>
<text x="413.75" y="426" text-anchor="middle">extension-git-ops</text></g>
<rect x="547.5" y="390" width="190" height="64" rx="10" fill="#eef2ff" stroke="#4f46e5" stroke-width="1.6" filter="url(#shadow)"/>
<rect x="553.5" y="396" width="178" height="52" rx="7" fill="none" stroke="#c7d2fe" stroke-width="1"/>
<g fill="#0f172a"><text x="642.5" y="408" text-anchor="middle">@mdwrk/</text>
<text x="642.5" y="426" text-anchor="middle">extension-workspace-files</text></g>
<rect x="776.25" y="390" width="190" height="64" rx="10" fill="#eef2ff" stroke="#4f46e5" stroke-width="1.6" filter="url(#shadow)"/>
<rect x="782.25" y="396" width="178" height="52" rx="7" fill="none" stroke="#c7d2fe" stroke-width="1"/>
<g fill="#0f172a"><text x="871.25" y="408" text-anchor="middle">@mdwrk/</text>
<text x="871.25" y="426" text-anchor="middle">extension-theme-studio</text></g>
<rect x="1005" y="390" width="190" height="64" rx="10" fill="#f5f3ff" stroke="#7c3aed" stroke-width="1.6" filter="url(#shadow)"/>
<rect x="1011" y="396" width="178" height="52" rx="7" fill="none" stroke="#ddd6fe" stroke-width="1"/>
<g fill="#0f172a"><text x="1100" y="408" text-anchor="middle">@mdwrk/</text>
<text x="1100" y="426" text-anchor="middle">markdown-edit-in-renderer-react</text></g>
<rect x="1233.75" y="390" width="190" height="64" rx="10" fill="#ecfdf5" stroke="#0f766e" stroke-width="1.6" filter="url(#shadow)"/>
<rect x="1239.75" y="396" width="178" height="52" rx="7" fill="none" stroke="#99f6e4" stroke-width="1"/>
<g fill="#0f172a"><text x="1328.75" y="408" text-anchor="middle">@mdwrk/</text>
<text x="1328.75" y="426" text-anchor="middle">lander-react</text></g>
<rect x="1462.5" y="390" width="190" height="64" rx="10" fill="#ecfdf5" stroke="#0f766e" stroke-width="1.6" filter="url(#shadow)"/>
<rect x="1468.5" y="396" width="178" height="52" rx="7" fill="none" stroke="#99f6e4" stroke-width="1"/>
<g fill="#0f172a"><text x="1557.5" y="408" text-anchor="middle">@mdwrk/</text>
<text x="1557.5" y="426" text-anchor="middle">lander-seo</text></g>
<rect x="1691.25" y="390" width="190" height="64" rx="10" fill="#ecfdf5" stroke="#0f766e" stroke-width="1.6" filter="url(#shadow)"/>
<rect x="1697.25" y="396" width="178" height="52" rx="7" fill="none" stroke="#99f6e4" stroke-width="1"/>
<g fill="#0f172a"><text x="1786.25" y="408" text-anchor="middle">@mdwrk/</text>
<text x="1786.25" y="426" text-anchor="middle">lander-theme</text></g>
<rect x="1920" y="390" width="190" height="64" rx="10" fill="#ecfdf5" stroke="#0f766e" stroke-width="1.6" filter="url(#shadow)"/>
<rect x="1926" y="396" width="178" height="52" rx="7" fill="none" stroke="#99f6e4" stroke-width="1"/>
<g fill="#0f172a"><text x="2015" y="408" text-anchor="middle">@mdwrk/</text>
<text x="2015" y="426" text-anchor="middle">mdwrkcom-content-pack</text></g>
<rect x="90" y="625" width="190" height="64" rx="10" fill="#eef2ff" stroke="#4f46e5" stroke-width="1.6" filter="url(#shadow)"/>
<rect x="96" y="631" width="178" height="52" rx="7" fill="none" stroke="#c7d2fe" stroke-width="1"/>
<g fill="#0f172a"><text x="185" y="643" text-anchor="middle">@mdwrk/</text>
<text x="185" y="661" text-anchor="middle">extension-manager</text></g>
<rect x="395" y="625" width="190" height="64" rx="10" fill="#eef2ff" stroke="#4f46e5" stroke-width="1.6" filter="url(#shadow)"/>
<rect x="401" y="631" width="178" height="52" rx="7" fill="none" stroke="#c7d2fe" stroke-width="1"/>
<g fill="#0f172a"><text x="490" y="643" text-anchor="middle">@mdwrk/</text>
<text x="490" y="661" text-anchor="middle">extension-language-pack-studio</text></g>
<rect x="700" y="625" width="190" height="64" rx="10" fill="#eef2ff" stroke="#4f46e5" stroke-width="1.6" filter="url(#shadow)"/>
<rect x="706" y="631" width="178" height="52" rx="7" fill="none" stroke="#c7d2fe" stroke-width="1"/>
<g fill="#0f172a"><text x="795" y="643" text-anchor="middle">@mdwrk/</text>
<text x="795" y="661" text-anchor="middle">extension-runtime</text></g>
<rect x="1005" y="625" width="190" height="64" rx="10" fill="#f5f3ff" stroke="#7c3aed" stroke-width="1.6" filter="url(#shadow)"/>
<rect x="1011" y="631" width="178" height="52" rx="7" fill="none" stroke="#ddd6fe" stroke-width="1"/>
<g fill="#0f172a"><text x="1100" y="643" text-anchor="middle">@mdwrk/</text>
<text x="1100" y="661" text-anchor="middle">markdown-editor-react</text></g>
<rect x="1310" y="625" width="190" height="64" rx="10" fill="#f5f3ff" stroke="#7c3aed" stroke-width="1.6" filter="url(#shadow)"/>
<rect x="1316" y="631" width="178" height="52" rx="7" fill="none" stroke="#ddd6fe" stroke-width="1"/>
<g fill="#0f172a"><text x="1405" y="643" text-anchor="middle">@mdwrk/</text>
<text x="1405" y="661" text-anchor="middle">markdown-renderer-react</text></g>
<rect x="1615" y="625" width="190" height="64" rx="10" fill="#ecfdf5" stroke="#0f766e" stroke-width="1.6" filter="url(#shadow)"/>
<rect x="1621" y="631" width="178" height="52" rx="7" fill="none" stroke="#99f6e4" stroke-width="1"/>
<g fill="#0f172a"><text x="1710" y="643" text-anchor="middle">@mdwrk/</text>
<text x="1710" y="661" text-anchor="middle">lander-markdown-content-adapter</text></g>
<rect x="1920" y="625" width="190" height="64" rx="10" fill="#ecfdf5" stroke="#0f766e" stroke-width="1.6" filter="url(#shadow)"/>
<rect x="1926" y="631" width="178" height="52" rx="7" fill="none" stroke="#99f6e4" stroke-width="1"/>
<g fill="#0f172a"><text x="2015" y="643" text-anchor="middle">@mdwrk/</text>
<text x="2015" y="661" text-anchor="middle">lander-page-template-presets</text></g>
<rect x="90" y="860" width="190" height="64" rx="10" fill="#eef2ff" stroke="#4f46e5" stroke-width="1.6" filter="url(#shadow)"/>
<rect x="96" y="866" width="178" height="52" rx="7" fill="none" stroke="#c7d2fe" stroke-width="1"/>
<g fill="#0f172a"><text x="185" y="878" text-anchor="middle">@mdwrk/</text>
<text x="185" y="896" text-anchor="middle">extension-host</text></g>
<rect x="293.33333333333337" y="860" width="190" height="64" rx="10" fill="#f5f3ff" stroke="#7c3aed" stroke-width="1.6" filter="url(#shadow)"/>
<rect x="299.33333333333337" y="866" width="178" height="52" rx="7" fill="none" stroke="#ddd6fe" stroke-width="1"/>
<g fill="#0f172a"><text x="388.33333333333337" y="878" text-anchor="middle">@mdwrk/</text>
<text x="388.33333333333337" y="896" text-anchor="middle">markdown-editor-core</text></g>
<rect x="496.6666666666667" y="860" width="190" height="64" rx="10" fill="#f5f3ff" stroke="#7c3aed" stroke-width="1.6" filter="url(#shadow)"/>
<rect x="502.6666666666667" y="866" width="178" height="52" rx="7" fill="none" stroke="#ddd6fe" stroke-width="1"/>
<g fill="#0f172a"><text x="591.6666666666667" y="878" text-anchor="middle">@mdwrk/</text>
<text x="591.6666666666667" y="896" text-anchor="middle">markdown-renderer-core</text></g>
<rect x="700" y="860" width="190" height="64" rx="10" fill="#ecfdf5" stroke="#0f766e" stroke-width="1.6" filter="url(#shadow)"/>
<rect x="706" y="866" width="178" height="52" rx="7" fill="none" stroke="#99f6e4" stroke-width="1"/>
<g fill="#0f172a"><text x="795" y="878" text-anchor="middle">@mdwrk/</text>
<text x="795" y="896" text-anchor="middle">lander-core</text></g>
<rect x="903.3333333333334" y="860" width="190" height="64" rx="10" fill="#ecfdf5" stroke="#0f766e" stroke-width="1.6" filter="url(#shadow)"/>
<rect x="909.3333333333334" y="866" width="178" height="52" rx="7" fill="none" stroke="#99f6e4" stroke-width="1"/>
<g fill="#0f172a"><text x="998.3333333333334" y="878" text-anchor="middle">@mdwrk/</text>
<text x="998.3333333333334" y="896" text-anchor="middle">lander-page-templates</text></g>
<rect x="1106.6666666666667" y="860" width="190" height="64" rx="10" fill="#f8fafc" stroke="#334155" stroke-width="1.6" filter="url(#shadow)"/>
<rect x="1112.6666666666667" y="866" width="178" height="52" rx="7" fill="none" stroke="#cbd5e1" stroke-width="1"/>
<g fill="#0f172a"><text x="1201.6666666666667" y="878" text-anchor="middle">@mdwrk/</text>
<text x="1201.6666666666667" y="896" text-anchor="middle">structured-data</text></g>
<rect x="1310" y="860" width="190" height="64" rx="10" fill="#f8fafc" stroke="#334155" stroke-width="1.6" filter="url(#shadow)"/>
<rect x="1316" y="866" width="178" height="52" rx="7" fill="none" stroke="#cbd5e1" stroke-width="1"/>
<g fill="#0f172a"><text x="1405" y="878" text-anchor="middle">@mdwrk/</text>
<text x="1405" y="896" text-anchor="middle">ui-tokens</text></g>
<rect x="1513.3333333333335" y="860" width="190" height="64" rx="10" fill="#f8fafc" stroke="#334155" stroke-width="1.6" filter="url(#shadow)"/>
<rect x="1519.3333333333335" y="866" width="178" height="52" rx="7" fill="none" stroke="#cbd5e1" stroke-width="1"/>
<g fill="#0f172a"><text x="1608.3333333333335" y="878" text-anchor="middle">@mdwrk/</text>
<text x="1608.3333333333335" y="896" text-anchor="middle">i18n</text></g>
<rect x="1716.6666666666667" y="860" width="190" height="64" rx="10" fill="#f8fafc" stroke="#334155" stroke-width="1.6" filter="url(#shadow)"/>
<rect x="1722.6666666666667" y="866" width="178" height="52" rx="7" fill="none" stroke="#cbd5e1" stroke-width="1"/>
<g fill="#0f172a"><text x="1811.6666666666667" y="878" text-anchor="middle">@mdwrk/</text>
<text x="1811.6666666666667" y="896" text-anchor="middle">icons</text></g>
<rect x="1920" y="860" width="190" height="64" rx="10" fill="#f8fafc" stroke="#334155" stroke-width="1.6" filter="url(#shadow)"/>
<rect x="1926" y="866" width="178" height="52" rx="7" fill="none" stroke="#cbd5e1" stroke-width="1"/>
<g fill="#0f172a"><text x="2015" y="878" text-anchor="middle">@mdwrk/</text>
<text x="2015" y="896" text-anchor="middle">testing</text></g>
<rect x="90" y="1095" width="190" height="64" rx="10" fill="#eef2ff" stroke="#4f46e5" stroke-width="1.6" filter="url(#shadow)"/>
<rect x="96" y="1101" width="178" height="52" rx="7" fill="none" stroke="#c7d2fe" stroke-width="1"/>
<g fill="#0f172a"><text x="185" y="1113" text-anchor="middle">@mdwrk/</text>
<text x="185" y="1131" text-anchor="middle">extension-manifest</text></g>
<rect x="1005" y="1095" width="190" height="64" rx="10" fill="#f8fafc" stroke="#334155" stroke-width="1.6" filter="url(#shadow)"/>
<rect x="1011" y="1101" width="178" height="52" rx="7" fill="none" stroke="#cbd5e1" stroke-width="1"/>
<g fill="#0f172a"><text x="1100" y="1113" text-anchor="middle">@mdwrk/</text>
<text x="1100" y="1131" text-anchor="middle">theme-contract</text></g>
<rect x="1920" y="1095" width="190" height="64" rx="10" fill="#ecfdf5" stroke="#0f766e" stroke-width="1.6" filter="url(#shadow)"/>
<rect x="1926" y="1101" width="178" height="52" rx="7" fill="none" stroke="#99f6e4" stroke-width="1"/>
<g fill="#0f172a"><text x="2015" y="1113" text-anchor="middle">@mdwrk/</text>
<text x="2015" y="1131" text-anchor="middle">lander-content-contract</text></g>
</g>
<g font-family="Inter, Segoe UI, Arial, sans-serif" font-size="13" fill="#64748b">
  <text x="90" y="1125">Generated from workspace package.json files. Direct dependencies only; transitive relationships are intentionally not implied.</text>
  <text x="2110" y="1125" text-anchor="end">apps at top; foundational contracts at bottom</text>
</g>
</svg>
