<?xml version="1.0" encoding="UTF-8"?>
<svg xmlns="http://www.w3.org/2000/svg" width="1790" height="852" viewBox="0 0 1790 852" role="img" aria-labelledby="title desc">
<title id="title">apps/mdwrkcom Package DAG</title>
<desc id="desc">Dependency closure for apps/mdwrkcom Arrows and the dependency list both use consumer depends on dependency direction.</desc>
<defs><marker id="arrow" markerWidth="8" markerHeight="8" refX="6" refY="4" orient="auto" markerUnits="strokeWidth"><path d="M 0 0 L 8 4 L 0 8 z" fill="#475569"/></marker><filter id="shadow" x="-10%" y="-10%" width="120%" height="130%"><feDropShadow dx="0" dy="3" stdDeviation="3" flood-color="#0f172a" flood-opacity="0.12"/></filter></defs>
<rect width="100%" height="100%" fill="#ffffff"/>
<text x="58" y="52" font-family="Inter, Segoe UI, Arial, sans-serif" font-size="31" font-weight="800" fill="#0f172a">apps/mdwrkcom Package DAG</text>
<text x="58" y="84" font-family="Inter, Segoe UI, Arial, sans-serif" font-size="16" fill="#475569">Dependency closure for apps/mdwrkcom</text>
<text x="58" y="112" font-family="Inter, Segoe UI, Arial, sans-serif" font-size="14" font-weight="700" fill="#334155">Read every arrow as: consumer depends on dependency.</text>
<text x="1732" y="112" text-anchor="end" font-family="Inter, Segoe UI, Arial, sans-serif" font-size="14" fill="#64748b">14 nodes / 23 direct edges</text>
<g fill="none" stroke="#475569" stroke-width="1.45" stroke-opacity="0.42" marker-end="url(#arrow)">
<path d="M 146 508 C 138 547.5, 338 547.5, 330 587"/><!-- @mdwrk/lander-core depends on @mdwrk/lander-content-contract -->
<path d="M 146 360 C 142 473.5, 334 473.5, 330 587"/><!-- @mdwrk/lander-react depends on @mdwrk/lander-content-contract -->
<path d="M 146 360 C 146 399.5, 146 399.5, 146 439"/><!-- @mdwrk/lander-react depends on @mdwrk/lander-core -->
<path d="M 146 360 C 150 399.5, 544 399.5, 548 439"/><!-- @mdwrk/lander-react depends on @mdwrk/structured-data -->
<path d="M 347 360 C 355 399.5, 138 399.5, 146 439"/><!-- @mdwrk/lander-seo depends on @mdwrk/lander-core -->
<path d="M 347 508 C 339 547.5, 556 547.5, 548 587"/><!-- @mdwrk/markdown-editor-core depends on @mdwrk/markdown-renderer-core -->
<path d="M 749 360 C 745 399.5, 351 399.5, 347 439"/><!-- @mdwrk/markdown-editor-react depends on @mdwrk/markdown-editor-core -->
<path d="M 749 360 C 749 399.5, 749 399.5, 749 439"/><!-- @mdwrk/markdown-editor-react depends on @mdwrk/testing -->
<path d="M 749 360 C 753 399.5, 946 399.5, 950 439"/><!-- @mdwrk/markdown-editor-react depends on @mdwrk/ui-tokens -->
<path d="M 950 360 C 958 473.5, 540 473.5, 548 587"/><!-- @mdwrk/markdown-renderer-react depends on @mdwrk/markdown-renderer-core -->
<path d="M 950 360 C 942 399.5, 757 399.5, 749 439"/><!-- @mdwrk/markdown-renderer-react depends on @mdwrk/testing -->
<path d="M 950 360 C 946 399.5, 954 399.5, 950 439"/><!-- @mdwrk/markdown-renderer-react depends on @mdwrk/ui-tokens -->
<path d="M 548 212 C 548 399.5, 330 399.5, 330 587"/><!-- @mdwrk/mdwrkcom depends on @mdwrk/lander-content-contract -->
<path d="M 548 212 C 552 325.5, 142 325.5, 146 439"/><!-- @mdwrk/mdwrkcom depends on @mdwrk/lander-core -->
<path d="M 548 212 C 556 251.5, 138 251.5, 146 291"/><!-- @mdwrk/mdwrkcom depends on @mdwrk/lander-react -->
<path d="M 548 212 C 540 251.5, 355 251.5, 347 291"/><!-- @mdwrk/mdwrkcom depends on @mdwrk/lander-seo -->
<path d="M 548 212 C 544 251.5, 552 251.5, 548 291"/><!-- @mdwrk/mdwrkcom depends on @mdwrk/lander-theme -->
<path d="M 548 212 C 548 251.5, 749 251.5, 749 291"/><!-- @mdwrk/mdwrkcom depends on @mdwrk/markdown-editor-react -->
<path d="M 548 212 C 552 399.5, 544 399.5, 548 587"/><!-- @mdwrk/mdwrkcom depends on @mdwrk/markdown-renderer-core -->
<path d="M 548 212 C 556 251.5, 942 251.5, 950 291"/><!-- @mdwrk/mdwrkcom depends on @mdwrk/markdown-renderer-react -->
<path d="M 548 212 C 540 325.5, 556 325.5, 548 439"/><!-- @mdwrk/mdwrkcom depends on @mdwrk/structured-data -->
<path d="M 548 212 C 544 325.5, 954 325.5, 950 439"/><!-- @mdwrk/mdwrkcom depends on @mdwrk/ui-tokens -->
<path d="M 950 508 C 950 547.5, 766 547.5, 766 587"/><!-- @mdwrk/ui-tokens depends on @mdwrk/theme-contract -->
</g>
<g font-family="Inter, Segoe UI, Arial, sans-serif" font-size="13" font-weight="700">
<rect x="242" y="594" width="176" height="62" rx="9" fill="#ecfdf5" stroke="#0f766e" stroke-width="1.6" filter="url(#shadow)"/>
<rect x="248" y="600" width="164" height="50" rx="6" fill="none" stroke="#99f6e4" stroke-width="1"/>
<g fill="#0f172a"><text x="330" y="612.5" text-anchor="middle">@mdwrk/</text>
<text x="330" y="629.5" text-anchor="middle">lander-content-contract</text></g>
<rect x="58" y="446" width="176" height="62" rx="9" fill="#ecfdf5" stroke="#0f766e" stroke-width="1.6" filter="url(#shadow)"/>
<rect x="64" y="452" width="164" height="50" rx="6" fill="none" stroke="#99f6e4" stroke-width="1"/>
<g fill="#0f172a"><text x="146" y="464.5" text-anchor="middle">@mdwrk/</text>
<text x="146" y="481.5" text-anchor="middle">lander-core</text></g>
<rect x="58" y="298" width="176" height="62" rx="9" fill="#ecfdf5" stroke="#0f766e" stroke-width="1.6" filter="url(#shadow)"/>
<rect x="64" y="304" width="164" height="50" rx="6" fill="none" stroke="#99f6e4" stroke-width="1"/>
<g fill="#0f172a"><text x="146" y="316.5" text-anchor="middle">@mdwrk/</text>
<text x="146" y="333.5" text-anchor="middle">lander-react</text></g>
<rect x="259" y="298" width="176" height="62" rx="9" fill="#ecfdf5" stroke="#0f766e" stroke-width="1.6" filter="url(#shadow)"/>
<rect x="265" y="304" width="164" height="50" rx="6" fill="none" stroke="#99f6e4" stroke-width="1"/>
<g fill="#0f172a"><text x="347" y="316.5" text-anchor="middle">@mdwrk/</text>
<text x="347" y="333.5" text-anchor="middle">lander-seo</text></g>
<rect x="460" y="298" width="176" height="62" rx="9" fill="#ecfdf5" stroke="#0f766e" stroke-width="1.6" filter="url(#shadow)"/>
<rect x="466" y="304" width="164" height="50" rx="6" fill="none" stroke="#99f6e4" stroke-width="1"/>
<g fill="#0f172a"><text x="548" y="316.5" text-anchor="middle">@mdwrk/</text>
<text x="548" y="333.5" text-anchor="middle">lander-theme</text></g>
<rect x="259" y="446" width="176" height="62" rx="9" fill="#f5f3ff" stroke="#7c3aed" stroke-width="1.6" filter="url(#shadow)"/>
<rect x="265" y="452" width="164" height="50" rx="6" fill="none" stroke="#ddd6fe" stroke-width="1"/>
<g fill="#0f172a"><text x="347" y="464.5" text-anchor="middle">@mdwrk/</text>
<text x="347" y="481.5" text-anchor="middle">markdown-editor-core</text></g>
<rect x="661" y="298" width="176" height="62" rx="9" fill="#f5f3ff" stroke="#7c3aed" stroke-width="1.6" filter="url(#shadow)"/>
<rect x="667" y="304" width="164" height="50" rx="6" fill="none" stroke="#ddd6fe" stroke-width="1"/>
<g fill="#0f172a"><text x="749" y="316.5" text-anchor="middle">@mdwrk/</text>
<text x="749" y="333.5" text-anchor="middle">markdown-editor-react</text></g>
<rect x="460" y="594" width="176" height="62" rx="9" fill="#f5f3ff" stroke="#7c3aed" stroke-width="1.6" filter="url(#shadow)"/>
<rect x="466" y="600" width="164" height="50" rx="6" fill="none" stroke="#ddd6fe" stroke-width="1"/>
<g fill="#0f172a"><text x="548" y="612.5" text-anchor="middle">@mdwrk/</text>
<text x="548" y="629.5" text-anchor="middle">markdown-renderer-core</text></g>
<rect x="862" y="298" width="176" height="62" rx="9" fill="#f5f3ff" stroke="#7c3aed" stroke-width="1.6" filter="url(#shadow)"/>
<rect x="868" y="304" width="164" height="50" rx="6" fill="none" stroke="#ddd6fe" stroke-width="1"/>
<g fill="#0f172a"><text x="950" y="316.5" text-anchor="middle">@mdwrk/</text>
<text x="950" y="333.5" text-anchor="middle">markdown-renderer-react</text></g>
<rect x="460" y="150" width="176" height="62" rx="9" fill="#fff7ed" stroke="#c2410c" stroke-width="1.6" filter="url(#shadow)"/>
<rect x="466" y="156" width="164" height="50" rx="6" fill="none" stroke="#fed7aa" stroke-width="1"/>
<g fill="#0f172a"><text x="548" y="168.5" text-anchor="middle">apps/mdwrkcom</text>
<text x="548" y="185.5" text-anchor="middle">@mdwrk/mdwrkcom</text></g>
<rect x="460" y="446" width="176" height="62" rx="9" fill="#f8fafc" stroke="#334155" stroke-width="1.6" filter="url(#shadow)"/>
<rect x="466" y="452" width="164" height="50" rx="6" fill="none" stroke="#cbd5e1" stroke-width="1"/>
<g fill="#0f172a"><text x="548" y="464.5" text-anchor="middle">@mdwrk/</text>
<text x="548" y="481.5" text-anchor="middle">structured-data</text></g>
<rect x="661" y="446" width="176" height="62" rx="9" fill="#f8fafc" stroke="#334155" stroke-width="1.6" filter="url(#shadow)"/>
<rect x="667" y="452" width="164" height="50" rx="6" fill="none" stroke="#cbd5e1" stroke-width="1"/>
<g fill="#0f172a"><text x="749" y="464.5" text-anchor="middle">@mdwrk/</text>
<text x="749" y="481.5" text-anchor="middle">testing</text></g>
<rect x="678" y="594" width="176" height="62" rx="9" fill="#f8fafc" stroke="#334155" stroke-width="1.6" filter="url(#shadow)"/>
<rect x="684" y="600" width="164" height="50" rx="6" fill="none" stroke="#cbd5e1" stroke-width="1"/>
<g fill="#0f172a"><text x="766" y="612.5" text-anchor="middle">@mdwrk/</text>
<text x="766" y="629.5" text-anchor="middle">theme-contract</text></g>
<rect x="862" y="446" width="176" height="62" rx="9" fill="#f8fafc" stroke="#334155" stroke-width="1.6" filter="url(#shadow)"/>
<rect x="868" y="452" width="164" height="50" rx="6" fill="none" stroke="#cbd5e1" stroke-width="1"/>
<g fill="#0f172a"><text x="950" y="464.5" text-anchor="middle">@mdwrk/</text>
<text x="950" y="481.5" text-anchor="middle">ui-tokens</text></g>
</g>
<rect x="1082" y="140" width="650" height="662" rx="14" fill="#f8fafc" stroke="#cbd5e1"/>
<text x="1106" y="176" font-family="Inter, Segoe UI, Arial, sans-serif" font-size="21" font-weight="800" fill="#0f172a">Direct dependency list</text>
<text x="1106" y="202" font-family="Inter, Segoe UI, Arial, sans-serif" font-size="14" fill="#475569">Left side = consumer. Right side = packages it depends on.</text>
<text x="1106" y="236" font-family="Inter, Segoe UI, Arial, sans-serif" font-size="14" font-weight="800" fill="#0f172a">lander-core</text>
<text x="1120" y="256" font-family="Inter, Segoe UI, Arial, sans-serif" font-size="13" fill="#475569">depends on: lander-content-contract</text>
<text x="1106" y="285" font-family="Inter, Segoe UI, Arial, sans-serif" font-size="14" font-weight="800" fill="#0f172a">lander-react</text>
<text x="1120" y="305" font-family="Inter, Segoe UI, Arial, sans-serif" font-size="13" fill="#475569">depends on: lander-content-contract, lander-core, structured-data</text>
<text x="1106" y="334" font-family="Inter, Segoe UI, Arial, sans-serif" font-size="14" font-weight="800" fill="#0f172a">lander-seo</text>
<text x="1120" y="354" font-family="Inter, Segoe UI, Arial, sans-serif" font-size="13" fill="#475569">depends on: lander-core</text>
<text x="1106" y="383" font-family="Inter, Segoe UI, Arial, sans-serif" font-size="14" font-weight="800" fill="#0f172a">markdown-editor-core</text>
<text x="1120" y="403" font-family="Inter, Segoe UI, Arial, sans-serif" font-size="13" fill="#475569">depends on: markdown-renderer-core</text>
<text x="1106" y="432" font-family="Inter, Segoe UI, Arial, sans-serif" font-size="14" font-weight="800" fill="#0f172a">markdown-editor-react</text>
<text x="1120" y="452" font-family="Inter, Segoe UI, Arial, sans-serif" font-size="13" fill="#475569">depends on: markdown-editor-core, testing, ui-tokens</text>
<text x="1106" y="481" font-family="Inter, Segoe UI, Arial, sans-serif" font-size="14" font-weight="800" fill="#0f172a">markdown-renderer-react</text>
<text x="1120" y="501" font-family="Inter, Segoe UI, Arial, sans-serif" font-size="13" fill="#475569">depends on: markdown-renderer-core, testing, ui-tokens</text>
<text x="1106" y="530" font-family="Inter, Segoe UI, Arial, sans-serif" font-size="14" font-weight="800" fill="#0f172a">mdwrkcom</text>
<text x="1120" y="550" font-family="Inter, Segoe UI, Arial, sans-serif" font-size="13" fill="#475569">depends on: lander-content-contract, lander-core, lander-react,</text>
<text x="1120" y="567" font-family="Inter, Segoe UI, Arial, sans-serif" font-size="13" fill="#475569">lander-seo, lander-theme, markdown-editor-react, markdown-renderer-core,</text>
<text x="1120" y="584" font-family="Inter, Segoe UI, Arial, sans-serif" font-size="13" fill="#475569">markdown-renderer-react, structured-data, ui-tokens</text>
<text x="1106" y="613" font-family="Inter, Segoe UI, Arial, sans-serif" font-size="14" font-weight="800" fill="#0f172a">ui-tokens</text>
<text x="1120" y="633" font-family="Inter, Segoe UI, Arial, sans-serif" font-size="13" fill="#475569">depends on: theme-contract</text>
<text x="58" y="818" font-family="Inter, Segoe UI, Arial, sans-serif" font-size="13" fill="#64748b">Generated from package.json direct internal dependencies. Transitive relationships appear only through direct edges.</text>
</svg>
